# This file uses centimeters as units for non-parametric coordinates.

mtllib Cube.mtl
g default
v 1.000000 -1.000000 -0.991000
v 1.000000 -1.000000 0.991068
v -1.000000 -1.000000 0.991068
v -1.000000 -1.000000 -0.991000
v 1.000000 2.327016 -0.991000
v 0.999999 2.327016 0.991068
v -1.000000 2.327016 0.991068
v -1.000000 2.327016 -0.991000
vt 0.965218 0.329261
vt 0.965218 0.681305
vt 0.739881 0.681305
vt 0.739881 0.329261
vt 0.274944 0.330194
vt 0.274944 0.682238
vt 0.051628 0.682238
vt 0.051628 0.330194
vt 0.505412 0.330194
vt 0.505412 0.682238
vt 0.280076 0.330194
vt 0.280076 0.682238
vt 0.734831 0.330194
vt 0.734831 0.682238
vt 0.511515 0.330194
vt 0.511515 0.682238
vt 0.508114 0.896312
vt 0.282778 0.896202
vt 0.508231 0.686582
vt 0.282894 0.686472
vt 0.503918 0.112894
vt 0.503830 0.322624
vt 0.278493 0.322540
vt 0.278582 0.112810
vn 0.000000 0.000000 -1.000000
vn 0.000000 0.000000 -1.000000
vn 0.000000 0.000000 -1.000000
vn 0.000000 0.000000 -1.000000
vn 0.000000 0.000000 -1.000000
vn 0.000000 0.000000 -1.000000
vn -1.000000 0.000000 0.000000
vn -1.000000 0.000000 0.000000
vn -1.000000 0.000000 0.000000
vn -1.000000 0.000000 0.000000
vn -1.000000 0.000000 0.000000
vn -1.000000 0.000000 0.000000
vn 0.000000 0.000000 1.000000
vn 0.000000 0.000000 1.000000
vn 0.000000 0.000000 1.000000
vn 0.000000 0.000000 1.000000
vn 0.000000 0.000000 1.000000
vn 0.000000 0.000000 1.000000
vn 1.000000 0.000000 0.000000
vn 1.000000 0.000000 0.000000
vn 1.000000 0.000000 0.000000
vn 1.000000 0.000000 0.000000
vn 1.000000 0.000000 0.000000
vn 1.000000 0.000000 0.000000
vn 0.000000 1.000000 0.000000
vn 0.000000 1.000000 0.000000
vn 0.000000 1.000000 0.000000
vn 0.000000 1.000000 0.000000
vn 0.000000 1.000000 0.000000
vn 0.000000 1.000000 0.000000
vn 0.000000 -1.000000 0.000000
vn 0.000000 -1.000000 0.000000
vn 0.000000 -1.000000 0.000000
vn 0.000000 -1.000000 0.000000
vn 0.000000 -1.000000 0.000000
vn 0.000000 -1.000000 0.000000
s off
g Cube:Mesh
usemtl initialShadingGroup
f 5/1/1 1/2/2 4/3/3
f 5/1/4 4/3/5 8/4/6
f 3/5/7 7/6/8 8/7/9
f 3/5/10 8/7/11 4/8/12
f 2/9/13 6/10/14 3/11/15
f 6/10/16 7/12/17 3/11/18
f 1/13/19 5/14/20 2/15/21
f 5/14/22 6/16/23 2/15/24
f 5/17/25 8/18/26 6/19/27
f 8/18/28 7/20/29 6/19/30
f 1/21/31 2/22/32 3/23/33
f 1/21/34 3/23/35 4/24/36
