# This file uses centimeters as units for non-parametric coordinates.

mtllib PlayerShip.mtl
g default
v 0.272053 -0.151534 -0.500000
v -0.272053 -0.151534 -0.500000
v 0.272053 0.151534 -0.500000
v -0.272053 0.151534 -0.500000
v 0.652496 0.167588 0.296240
v -0.652496 0.167588 0.296240
v 0.652496 -0.167588 0.296240
v -0.652496 -0.167588 0.296240
v 0.652496 0.167588 -0.413861
v 0.652496 -0.167588 -0.413861
v -0.652496 -0.167588 -0.413861
v -0.652496 0.167588 -0.413861
v 0.005854 0.103912 -1.235844
v 0.005854 0.277767 0.001813
v 0.005854 0.277767 0.500000
v 0.005854 -0.163734 0.500000
v 0.005854 -0.163734 0.001813
v 0.005854 -0.103912 -1.235844
v -0.035668 0.103912 -1.235844
v -0.035668 0.277767 0.001813
v -0.035668 0.277767 0.500000
v -0.035668 -0.163734 0.500000
v -0.035668 -0.163734 0.001813
v -0.035668 -0.103912 -1.235844
v 0.046634 0.103912 -1.235844
v 0.046634 0.277767 0.001813
v 0.046634 0.277767 0.500000
v 0.046634 -0.163734 0.500000
v 0.046634 -0.163734 0.001813
v 0.046634 -0.103912 -1.235844
v 0.839647 -0.167588 0.296240
v 0.839647 -0.167588 0.102492
v 0.839647 0.167588 0.102492
v 0.839647 0.167588 0.296240
v -0.839647 -0.167588 0.102492
v -0.839647 0.167588 0.102492
v -0.839647 -0.167588 0.296240
v -0.839647 0.167588 0.296240
vt 0.530585 0.198634
vt 0.542715 0.011196
vt 0.595653 0.011196
vt 0.607784 0.198634
vt 0.242019 0.189625
vt 0.291612 0.027734
vt 0.291612 0.300027
vt 0.158319 0.300027
vt 0.251413 0.881952
vt 0.201374 0.727624
vt 0.357783 0.727624
vt 0.336791 0.881952
vt 0.608345 0.699973
vt 0.741639 0.699973
vt 0.741639 0.972266
vt 0.692045 0.810375
vt 0.418231 0.810570
vt 0.414141 0.682746
vt 0.499519 0.682746
vt 0.495429 0.810570
vt 0.526496 0.326458
vt 0.611873 0.326458
vt 0.526496 0.507338
vt 0.526496 0.457986
vt 0.611873 0.457986
vt 0.611873 0.507338
vt 0.608345 0.543746
vt 0.741639 0.590368
vt 0.499519 0.551218
vt 0.414141 0.551218
vt 0.414141 0.501866
vt 0.499519 0.501866
vt 0.291612 0.409632
vt 0.158319 0.456254
vt 0.300584 0.027734
vt 0.309719 0.027734
vt 0.309719 0.300027
vt 0.300584 0.300027
vt 0.300584 0.409632
vt 0.309719 0.409632
vt 0.357783 0.717236
vt 0.201374 0.717236
vt 0.201374 0.706659
vt 0.357783 0.706659
vt 0.750610 0.699973
vt 0.750610 0.590368
vt 0.759745 0.590368
vt 0.759745 0.699973
vt 0.750610 0.972266
vt 0.759745 0.972266
vt 0.143643 0.554804
vt 0.143643 0.501866
vt 0.154219 0.501866
vt 0.154219 0.554804
vt 0.361726 0.189625
vt 0.445426 0.300027
vt 0.445426 0.456254
vt 0.251413 0.549538
vt 0.336791 0.549538
vt 0.895452 0.543746
vt 0.895452 0.699973
vt 0.811752 0.810375
vt 0.483299 0.998008
vt 0.430361 0.998008
vt 0.133255 0.554804
vt 0.133255 0.501866
vt 0.567170 0.586372
vt 0.567170 0.543746
vt 0.117144 0.456254
vt 0.117144 0.413628
vt 0.336791 0.929623
vt 0.251413 0.929623
vt 0.936626 0.543746
vt 0.936626 0.586372
vt 0.251413 0.501866
vt 0.336791 0.501866
vt 0.486600 0.413628
vt 0.486600 0.456254
vn 0.956142 0.000000 -0.292905
vn 0.943940 0.000000 -0.330116
vn 0.956142 0.000000 -0.292905
vn 0.943940 0.000000 -0.330116
vn 0.206670 0.953628 -0.218820
vn 0.303387 0.947090 -0.104769
vn 0.359186 0.906365 -0.222461
vn 0.327686 0.941716 -0.076114
vn -0.301188 0.000000 0.953565
vn -0.304334 0.000000 0.952565
vn -0.330160 0.000000 0.943925
vn -0.330160 0.000000 0.943925
vn 0.140349 -0.989280 -0.040344
vn 0.128686 -0.989981 -0.058125
vn 0.151233 -0.980629 -0.124484
vn 0.080182 -0.989359 -0.121411
vn -0.796877 0.000000 -0.604142
vn -0.796877 0.000000 -0.604142
vn -0.796877 0.000000 -0.604142
vn -0.796877 0.000000 -0.604142
vn 0.796877 0.000000 -0.604142
vn 0.796877 0.000000 -0.604142
vn 0.796877 0.000000 -0.604142
vn 0.796877 0.000000 -0.604142
vn 1.000000 0.000000 0.000000
vn 1.000000 0.000000 0.000000
vn 1.000000 0.000000 0.000000
vn 1.000000 0.000000 0.000000
vn 0.134783 -0.990875 0.000000
vn 0.128983 -0.991647 0.000000
vn 0.140349 -0.989280 -0.040344
vn 0.128686 -0.989981 -0.058125
vn -1.000000 0.000000 -0.000000
vn -1.000000 0.000000 -0.000000
vn -1.000000 0.000000 -0.000000
vn -1.000000 0.000000 -0.000000
vn 0.303387 0.947090 -0.104769
vn 0.296061 0.955169 0.000000
vn 0.327686 0.941716 -0.076114
vn 0.308432 0.951247 0.000000
vn 0.000000 0.978620 -0.205678
vn -0.204837 0.954230 -0.217914
vn 0.000000 0.988958 -0.148198
vn -0.296984 0.949123 -0.104715
vn 0.000000 1.000000 0.000000
vn 0.000000 0.988958 -0.148198
vn -0.291216 0.956657 -0.000000
vn -0.296984 0.949123 -0.104715
vn -0.000000 0.000000 1.000000
vn -0.000000 0.000000 1.000000
vn 0.299444 0.000000 0.954114
vn 0.296396 0.000000 0.955065
vn 0.000000 -0.996477 -0.083863
vn 0.000000 -1.000000 0.000000
vn -0.125730 -0.990361 -0.058112
vn -0.126711 -0.991940 -0.000000
vn 0.000000 -0.993106 -0.117222
vn 0.000000 -0.996477 -0.083863
vn -0.079764 -0.989446 -0.120977
vn -0.125730 -0.990361 -0.058112
vn 0.000000 0.000000 -1.000000
vn 0.000000 0.000000 -1.000000
vn -0.939254 0.000000 -0.343222
vn -0.939254 0.000000 -0.343222
vn -0.204837 0.954230 -0.217914
vn -0.349408 0.910538 -0.220985
vn -0.296984 0.949123 -0.104715
vn -0.321098 0.943984 -0.076097
vn -0.296984 0.949123 -0.104715
vn -0.321098 0.943984 -0.076097
vn -0.291216 0.956657 -0.000000
vn -0.303457 0.952845 -0.000000
vn 0.296396 0.000000 0.955065
vn 0.324915 0.000000 0.945743
vn 0.299444 0.000000 0.954114
vn 0.324915 0.000000 0.945743
vn -0.125730 -0.990361 -0.058112
vn -0.126711 -0.991940 -0.000000
vn -0.137279 -0.989708 -0.040401
vn -0.132429 -0.991193 -0.000000
vn -0.079764 -0.989446 -0.120977
vn -0.125730 -0.990361 -0.058112
vn -0.146565 -0.981456 -0.123541
vn -0.137279 -0.989708 -0.040401
vn -0.939254 0.000000 -0.343222
vn -0.939254 0.000000 -0.343222
vn -0.952080 0.000000 -0.305849
vn -0.952080 0.000000 -0.305849
vn 0.206670 0.953628 -0.218820
vn 0.000000 0.978620 -0.205678
vn 0.303387 0.947090 -0.104769
vn 0.000000 0.988958 -0.148198
vn 0.296061 0.955169 0.000000
vn 0.303387 0.947090 -0.104769
vn 0.000000 1.000000 0.000000
vn 0.000000 0.988958 -0.148198
vn -0.304334 0.000000 0.952565
vn -0.301188 0.000000 0.953565
vn -0.000000 0.000000 1.000000
vn -0.000000 0.000000 1.000000
vn 0.128686 -0.989981 -0.058125
vn 0.128983 -0.991647 0.000000
vn 0.000000 -0.996477 -0.083863
vn 0.000000 -1.000000 0.000000
vn 0.080182 -0.989359 -0.121411
vn 0.128686 -0.989981 -0.058125
vn 0.000000 -0.993106 -0.117222
vn 0.000000 -0.996477 -0.083863
vn 0.943940 0.000000 -0.330116
vn 0.943940 0.000000 -0.330116
vn 0.000000 0.000000 -1.000000
vn 0.000000 0.000000 -1.000000
vn 0.000000 -1.000000 0.000000
vn 0.000000 -1.000000 0.000000
vn 0.000000 -1.000000 0.000000
vn 0.000000 -1.000000 0.000000
vn 0.940152 0.000000 -0.340756
vn 0.940152 0.000000 -0.340756
vn 0.940152 0.000000 -0.340756
vn 0.940152 0.000000 -0.340756
vn 0.000000 1.000000 0.000000
vn 0.000000 1.000000 0.000000
vn 0.000000 1.000000 0.000000
vn 0.000000 1.000000 0.000000
vn -0.000000 0.000000 1.000000
vn -0.000000 0.000000 1.000000
vn -0.000000 0.000000 1.000000
vn -0.000000 0.000000 1.000000
vn -0.940152 0.000000 -0.340756
vn -0.940152 0.000000 -0.340756
vn -0.940152 0.000000 -0.340756
vn -0.940152 0.000000 -0.340756
vn 0.000000 -1.000000 0.000000
vn 0.000000 -1.000000 0.000000
vn 0.000000 -1.000000 0.000000
vn 0.000000 -1.000000 0.000000
vn -0.000000 0.000000 1.000000
vn -0.000000 0.000000 1.000000
vn -0.000000 0.000000 1.000000
vn -0.000000 0.000000 1.000000
vn 0.000000 1.000000 0.000000
vn 0.000000 1.000000 0.000000
vn 0.000000 1.000000 0.000000
vn 0.000000 1.000000 0.000000
s 1
g PlayerShip:pCube1
usemtl PlayerShip:initialShadingGroup
f 1/1/1 30/2/2 3/4/3
f 3/4/3 30/2/2 25/3/4
s 2
f 25/6/5 26/7/6 3/5/7
f 3/5/7 26/7/6 9/8/8
s 3
f 27/10/9 28/11/10 5/9/11
f 5/9/11 28/11/10 7/12/12
s 4
f 10/13/13 29/14/14 1/16/15
f 1/16/15 29/14/14 30/15/16
s 5
f 2/17/17 11/18/18 4/20/19
f 4/20/19 11/18/18 12/19/20
s 6
f 10/21/21 1/1/22 9/22/23
f 9/22/23 1/1/22 3/4/24
s 7
f 31/23/25 32/24/26 34/26/27
f 34/26/27 32/24/26 33/25/28
s 8
f 7/27/29 28/28/30 10/13/31
f 10/13/31 28/28/30 29/14/32
s 9
f 36/29/33 35/30/34 38/32/35
f 38/32/35 35/30/34 37/31/36
s 10
f 26/7/37 27/33/38 9/8/39
f 9/8/39 27/33/38 5/34/40
s 11
f 13/35/41 19/36/42 14/38/43
f 14/38/43 19/36/42 20/37/44
s 12
f 15/39/45 14/38/46 21/40/47
f 21/40/47 14/38/46 20/37/48
s 13
f 16/41/49 15/42/50 22/44/51
f 22/44/51 15/42/50 21/43/52
s 14
f 17/45/53 16/46/54 23/48/55
f 23/48/55 16/46/54 22/47/56
s 15
f 18/49/57 17/45/58 24/50/59
f 24/50/59 17/45/58 23/48/60
s 16
f 13/51/61 18/52/62 19/54/63
f 19/54/63 18/52/62 24/53/64
s 17
f 19/36/65 4/55/66 20/37/67
f 20/37/67 4/55/66 12/56/68
s 18
f 20/37/69 12/56/70 21/40/71
f 21/40/71 12/56/70 6/57/72
s 19
f 21/43/73 6/58/74 22/44/75
f 22/44/75 6/58/74 8/59/76
s 20
f 23/48/77 22/47/78 11/61/79
f 11/61/79 22/47/78 8/60/80
s 21
f 24/50/81 23/48/82 2/62/83
f 2/62/83 23/48/82 11/61/84
s 22
f 19/63/85 24/64/86 4/20/87
f 4/20/87 24/64/86 2/17/88
s 23
f 25/6/89 13/35/90 26/7/91
f 26/7/91 13/35/90 14/38/92
s 24
f 27/33/93 26/7/94 15/39/95
f 15/39/95 26/7/94 14/38/96
s 25
f 28/11/97 27/10/98 16/41/99
f 16/41/99 27/10/98 15/42/100
s 26
f 29/14/101 28/28/102 17/45/103
f 17/45/103 28/28/102 16/46/104
s 27
f 30/15/105 29/14/106 18/49/107
f 18/49/107 29/14/106 17/45/108
s 28
f 25/65/109 30/66/110 13/51/111
f 13/51/111 30/66/110 18/52/112
s 29
f 10/13/113 32/67/114 7/27/115
f 7/27/115 32/67/114 31/68/116
s 30
f 10/21/117 9/22/118 32/24/119
f 32/24/119 9/22/118 33/25/120
s 31
f 9/8/121 5/34/122 33/70/123
f 33/70/123 5/34/122 34/69/124
s 32
f 5/9/125 7/12/126 34/72/127
f 34/72/127 7/12/126 31/71/128
s 33
f 12/19/129 11/18/130 36/29/131
f 36/29/131 11/18/130 35/30/132
s 34
f 11/61/133 8/60/134 35/74/135
f 35/74/135 8/60/134 37/73/136
s 35
f 8/59/137 6/58/138 37/76/139
f 37/76/139 6/58/138 38/75/140
s 36
f 12/56/141 36/77/142 6/57/143
f 6/57/143 36/77/142 38/78/144
