# This file uses centimeters as units for non-parametric coordinates.

v 0.272053 -0.151534 -0.500000
v -0.272053 -0.151534 -0.500000
v 0.272053 0.151534 -0.500000
v -0.272053 0.151534 -0.500000
v 0.652496 0.167588 0.296240
v -0.652496 0.167588 0.296240
v 0.652496 -0.167588 0.296240
v -0.652496 -0.167588 0.296240
v 0.652496 0.167588 -0.413861
v 0.652496 -0.167588 -0.413861
v -0.652496 -0.167588 -0.413861
v -0.652496 0.167588 -0.413861
v 0.005854 0.103912 -1.235844
v 0.005854 0.277767 0.001813
v 0.005854 0.277767 0.500000
v 0.005854 -0.163734 0.500000
v 0.005854 -0.163734 0.001813
v 0.005854 -0.103912 -1.235844
v -0.035668 0.103912 -1.235844
v -0.035668 0.277767 0.001813
v -0.035668 0.277767 0.500000
v -0.035668 -0.163734 0.500000
v -0.035668 -0.163734 0.001813
v -0.035668 -0.103912 -1.235844
v 0.046634 0.103912 -1.235844
v 0.046634 0.277767 0.001813
v 0.046634 0.277767 0.500000
v 0.046634 -0.163734 0.500000
v 0.046634 -0.163734 0.001813
v 0.046634 -0.103912 -1.235844
v 0.839647 -0.167588 0.296240
v 0.839647 -0.167588 0.102492
v 0.839647 0.167588 0.102492
v 0.839647 0.167588 0.296240
v -0.839647 -0.167588 0.102492
v -0.839647 0.167588 0.102492
v -0.839647 -0.167588 0.296240
v -0.839647 0.167588 0.296240
vt 0.530585 0.198634
vt 0.607784 0.198634
vt 0.542715 0.011196
vt 0.595653 0.011196
vt 0.291612 0.027734
vt 0.242019 0.189625
vt 0.291612 0.300027
vt 0.158319 0.300027
vt 0.201374 0.727624
vt 0.251413 0.881952
vt 0.357783 0.727624
vt 0.336791 0.881952
vt 0.608345 0.699973
vt 0.692045 0.810375
vt 0.741639 0.699973
vt 0.741639 0.972266
vt 0.418231 0.810570
vt 0.495429 0.810570
vt 0.414141 0.682746
vt 0.499519 0.682746
vt 0.526496 0.326458
vt 0.611873 0.326458
vt 0.526496 0.507338
vt 0.611873 0.507338
vt 0.526496 0.457986
vt 0.611873 0.457986
vt 0.608345 0.543746
vt 0.741639 0.590368
vt 0.499519 0.551218
vt 0.499519 0.501866
vt 0.414141 0.551218
vt 0.414141 0.501866
vt 0.291612 0.409632
vt 0.158319 0.456254
vt 0.300584 0.027734
vt 0.300584 0.300027
vt 0.309719 0.027734
vt 0.309719 0.300027
vt 0.300584 0.409632
vt 0.309719 0.409632
vt 0.357783 0.717236
vt 0.357783 0.706659
vt 0.201374 0.717236
vt 0.201374 0.706659
vt 0.750610 0.699973
vt 0.759745 0.699973
vt 0.750610 0.590368
vt 0.759745 0.590368
vt 0.750610 0.972266
vt 0.759745 0.972266
vt 0.143643 0.554804
vt 0.154219 0.554804
vt 0.143643 0.501866
vt 0.154219 0.501866
vt 0.361726 0.189625
vt 0.445426 0.300027
vt 0.445426 0.456254
vt 0.251413 0.549538
vt 0.336791 0.549538
vt 0.895452 0.699973
vt 0.895452 0.543746
vt 0.811752 0.810375
vt 0.483299 0.998008
vt 0.430361 0.998008
vt 0.133255 0.554804
vt 0.133255 0.501866
vt 0.567170 0.586372
vt 0.567170 0.543746
vt 0.117144 0.413628
vt 0.117144 0.456254
vt 0.251413 0.929623
vt 0.336791 0.929623
vt 0.936626 0.586372
vt 0.936626 0.543746
vt 0.336791 0.501866
vt 0.251413 0.501866
vt 0.486600 0.413628
vt 0.486600 0.456254
vn 0.956142 0.000000 -0.292905
vn 0.943940 0.000000 -0.330116
vn 0.956142 0.000000 -0.292905
vn 0.956142 0.000000 -0.292905
vn 0.943940 0.000000 -0.330116
vn 0.943940 0.000000 -0.330116
vn 0.206670 0.953628 -0.218820
vn 0.303387 0.947090 -0.104769
vn 0.359186 0.906365 -0.222461
vn 0.359186 0.906365 -0.222461
vn 0.303387 0.947090 -0.104769
vn 0.327686 0.941716 -0.076114
vn -0.301188 0.000000 0.953565
vn -0.304334 0.000000 0.952565
vn -0.330160 0.000000 0.943925
vn -0.330160 0.000000 0.943925
vn -0.304334 0.000000 0.952565
vn -0.330160 0.000000 0.943925
vn 0.140349 -0.989280 -0.040344
vn 0.128686 -0.989981 -0.058125
vn 0.151233 -0.980629 -0.124484
vn 0.151233 -0.980629 -0.124484
vn 0.128686 -0.989981 -0.058125
vn 0.080182 -0.989359 -0.121411
vn -0.796877 0.000000 -0.604142
vn -0.796877 0.000000 -0.604142
vn -0.796877 0.000000 -0.604142
vn -0.796877 0.000000 -0.604142
vn -0.796877 0.000000 -0.604142
vn -0.796877 0.000000 -0.604142
vn 0.796877 0.000000 -0.604142
vn 0.796877 0.000000 -0.604142
vn 0.796877 0.000000 -0.604142
vn 0.796877 0.000000 -0.604142
vn 0.796877 0.000000 -0.604142
vn 0.796877 0.000000 -0.604142
vn 1.000000 0.000000 0.000000
vn 1.000000 0.000000 0.000000
vn 1.000000 0.000000 0.000000
vn 1.000000 0.000000 0.000000
vn 1.000000 0.000000 0.000000
vn 1.000000 0.000000 0.000000
vn 0.134783 -0.990875 0.000000
vn 0.128983 -0.991647 0.000000
vn 0.140349 -0.989280 -0.040344
vn 0.140349 -0.989280 -0.040344
vn 0.128983 -0.991647 0.000000
vn 0.128686 -0.989981 -0.058125
vn -1.000000 0.000000 -0.000000
vn -1.000000 0.000000 -0.000000
vn -1.000000 0.000000 -0.000000
vn -1.000000 0.000000 -0.000000
vn -1.000000 0.000000 -0.000000
vn -1.000000 0.000000 -0.000000
vn 0.303387 0.947090 -0.104769
vn 0.296061 0.955169 0.000000
vn 0.327686 0.941716 -0.076114
vn 0.327686 0.941716 -0.076114
vn 0.296061 0.955169 0.000000
vn 0.308432 0.951247 0.000000
vn 0.000000 0.978620 -0.205678
vn -0.204837 0.954230 -0.217914
vn 0.000000 0.988958 -0.148198
vn 0.000000 0.988958 -0.148198
vn -0.204837 0.954230 -0.217914
vn -0.296984 0.949123 -0.104715
vn 0.000000 1.000000 0.000000
vn 0.000000 0.988958 -0.148198
vn -0.291216 0.956657 -0.000000
vn -0.291216 0.956657 -0.000000
vn 0.000000 0.988958 -0.148198
vn -0.296984 0.949123 -0.104715
vn 0.000000 0.000000 1.000000
vn 0.000000 0.000000 1.000000
vn 0.299444 0.000000 0.954114
vn 0.299444 0.000000 0.954114
vn 0.000000 0.000000 1.000000
vn 0.296396 0.000000 0.955065
vn 0.000000 -0.996477 -0.083863
vn 0.000000 -1.000000 0.000000
vn -0.125730 -0.990361 -0.058112
vn -0.125730 -0.990361 -0.058112
vn 0.000000 -1.000000 0.000000
vn -0.126711 -0.991940 0.000000
vn 0.000000 -0.993106 -0.117222
vn 0.000000 -0.996477 -0.083863
vn -0.079764 -0.989446 -0.120977
vn -0.079764 -0.989446 -0.120977
vn 0.000000 -0.996477 -0.083863
vn -0.125730 -0.990361 -0.058112
vn 0.000000 0.000000 -1.000000
vn 0.000000 0.000000 -1.000000
vn -0.939254 0.000000 -0.343222
vn -0.939254 0.000000 -0.343222
vn 0.000000 0.000000 -1.000000
vn -0.939254 0.000000 -0.343222
vn -0.204837 0.954230 -0.217914
vn -0.349408 0.910538 -0.220985
vn -0.296984 0.949123 -0.104715
vn -0.296984 0.949123 -0.104715
vn -0.349408 0.910538 -0.220985
vn -0.321098 0.943984 -0.076097
vn -0.296984 0.949123 -0.104715
vn -0.321098 0.943984 -0.076097
vn -0.291216 0.956657 -0.000000
vn -0.291216 0.956657 -0.000000
vn -0.321098 0.943984 -0.076097
vn -0.303457 0.952845 -0.000000
vn 0.296396 0.000000 0.955065
vn 0.324915 0.000000 0.945743
vn 0.299444 0.000000 0.954114
vn 0.299444 0.000000 0.954114
vn 0.324915 0.000000 0.945743
vn 0.324915 0.000000 0.945743
vn -0.125730 -0.990361 -0.058112
vn -0.126711 -0.991940 0.000000
vn -0.137279 -0.989708 -0.040401
vn -0.137279 -0.989708 -0.040401
vn -0.126711 -0.991940 0.000000
vn -0.132429 -0.991193 0.000000
vn -0.079764 -0.989446 -0.120977
vn -0.125730 -0.990361 -0.058112
vn -0.146565 -0.981456 -0.123541
vn -0.146565 -0.981456 -0.123541
vn -0.125730 -0.990361 -0.058112
vn -0.137279 -0.989708 -0.040401
vn -0.939254 0.000000 -0.343222
vn -0.939254 0.000000 -0.343222
vn -0.952080 0.000000 -0.305849
vn -0.952080 0.000000 -0.305849
vn -0.939254 0.000000 -0.343222
vn -0.952080 0.000000 -0.305849
vn 0.206670 0.953628 -0.218820
vn 0.000000 0.978620 -0.205678
vn 0.303387 0.947090 -0.104769
vn 0.303387 0.947090 -0.104769
vn 0.000000 0.978620 -0.205678
vn 0.000000 0.988958 -0.148198
vn 0.296061 0.955169 0.000000
vn 0.303387 0.947090 -0.104769
vn 0.000000 1.000000 0.000000
vn 0.000000 1.000000 0.000000
vn 0.303387 0.947090 -0.104769
vn 0.000000 0.988958 -0.148198
vn -0.304334 0.000000 0.952565
vn -0.301188 0.000000 0.953565
vn 0.000000 0.000000 1.000000
vn 0.000000 0.000000 1.000000
vn -0.301188 0.000000 0.953565
vn 0.000000 0.000000 1.000000
vn 0.128686 -0.989981 -0.058125
vn 0.128983 -0.991647 0.000000
vn 0.000000 -0.996477 -0.083863
vn 0.000000 -0.996477 -0.083863
vn 0.128983 -0.991647 0.000000
vn 0.000000 -1.000000 0.000000
vn 0.080182 -0.989359 -0.121411
vn 0.128686 -0.989981 -0.058125
vn 0.000000 -0.993106 -0.117222
vn 0.000000 -0.993106 -0.117222
vn 0.128686 -0.989981 -0.058125
vn 0.000000 -0.996477 -0.083863
vn 0.943940 0.000000 -0.330116
vn 0.943940 0.000000 -0.330116
vn 0.000000 0.000000 -1.000000
vn 0.000000 0.000000 -1.000000
vn 0.943940 0.000000 -0.330116
vn 0.000000 0.000000 -1.000000
vn 0.000000 -1.000000 0.000000
vn 0.000000 -1.000000 0.000000
vn 0.000000 -1.000000 0.000000
vn 0.000000 -1.000000 0.000000
vn 0.000000 -1.000000 0.000000
vn 0.000000 -1.000000 0.000000
vn 0.940152 0.000000 -0.340756
vn 0.940152 0.000000 -0.340756
vn 0.940152 0.000000 -0.340756
vn 0.940152 0.000000 -0.340756
vn 0.940152 0.000000 -0.340756
vn 0.940152 0.000000 -0.340756
vn 0.000000 1.000000 0.000000
vn 0.000000 1.000000 0.000000
vn 0.000000 1.000000 0.000000
vn 0.000000 1.000000 0.000000
vn 0.000000 1.000000 0.000000
vn 0.000000 1.000000 0.000000
vn 0.000000 0.000000 1.000000
vn 0.000000 0.000000 1.000000
vn 0.000000 0.000000 1.000000
vn 0.000000 0.000000 1.000000
vn 0.000000 0.000000 1.000000
vn 0.000000 0.000000 1.000000
vn -0.940152 0.000000 -0.340756
vn -0.940152 0.000000 -0.340756
vn -0.940152 0.000000 -0.340756
vn -0.940152 0.000000 -0.340756
vn -0.940152 0.000000 -0.340756
vn -0.940152 0.000000 -0.340756
vn 0.000000 -1.000000 0.000000
vn 0.000000 -1.000000 0.000000
vn 0.000000 -1.000000 0.000000
vn 0.000000 -1.000000 0.000000
vn 0.000000 -1.000000 0.000000
vn 0.000000 -1.000000 0.000000
vn 0.000000 0.000000 1.000000
vn 0.000000 0.000000 1.000000
vn 0.000000 0.000000 1.000000
vn 0.000000 0.000000 1.000000
vn 0.000000 0.000000 1.000000
vn 0.000000 0.000000 1.000000
vn 0.000000 1.000000 0.000000
vn 0.000000 1.000000 0.000000
vn 0.000000 1.000000 0.000000
vn 0.000000 1.000000 0.000000
vn 0.000000 1.000000 0.000000
vn 0.000000 1.000000 0.000000
g PlayerShip:pCube1
f 1/1/1 30/3/2 3/2/3
f 3/2/4 30/3/5 25/4/6
f 25/5/7 26/7/8 3/6/9
f 3/6/10 26/7/11 9/8/12
f 27/9/13 28/11/14 5/10/15
f 5/10/16 28/11/17 7/12/18
f 10/13/19 29/15/20 1/14/21
f 1/14/22 29/15/23 30/16/24
f 2/17/25 11/19/26 4/18/27
f 4/18/28 11/19/29 12/20/30
f 10/21/31 1/1/32 9/22/33
f 9/22/34 1/1/35 3/2/36
f 31/23/37 32/25/38 34/24/39
f 34/24/40 32/25/41 33/26/42
f 7/27/43 28/28/44 10/13/45
f 10/13/46 28/28/47 29/15/48
f 36/29/49 35/31/50 38/30/51
f 38/30/52 35/31/53 37/32/54
f 26/7/55 27/33/56 9/8/57
f 9/8/58 27/33/59 5/34/60
f 13/35/61 19/37/62 14/36/63
f 14/36/64 19/37/65 20/38/66
f 15/39/67 14/36/68 21/40/69
f 21/40/70 14/36/71 20/38/72
f 16/41/73 15/43/74 22/42/75
f 22/42/76 15/43/77 21/44/78
f 17/45/79 16/47/80 23/46/81
f 23/46/82 16/47/83 22/48/84
f 18/49/85 17/45/86 24/50/87
f 24/50/88 17/45/89 23/46/90
f 13/51/91 18/53/92 19/52/93
f 19/52/94 18/53/95 24/54/96
f 19/37/97 4/55/98 20/38/99
f 20/38/100 4/55/101 12/56/102
f 20/38/103 12/56/104 21/40/105
f 21/40/106 12/56/107 6/57/108
f 21/44/109 6/58/110 22/42/111
f 22/42/112 6/58/113 8/59/114
f 23/46/115 22/48/116 11/60/117
f 11/60/118 22/48/119 8/61/120
f 24/50/121 23/46/122 2/62/123
f 2/62/124 23/46/125 11/60/126
f 19/63/127 24/64/128 4/18/129
f 4/18/130 24/64/131 2/17/132
f 25/5/133 13/35/134 26/7/135
f 26/7/136 13/35/137 14/36/138
f 27/33/139 26/7/140 15/39/141
f 15/39/142 26/7/143 14/36/144
f 28/11/145 27/9/146 16/41/147
f 16/41/148 27/9/149 15/43/150
f 29/15/151 28/28/152 17/45/153
f 17/45/154 28/28/155 16/47/156
f 30/16/157 29/15/158 18/49/159
f 18/49/160 29/15/161 17/45/162
f 25/65/163 30/66/164 13/51/165
f 13/51/166 30/66/167 18/53/168
f 10/13/169 32/67/170 7/27/171
f 7/27/172 32/67/173 31/68/174
f 10/21/175 9/22/176 32/25/177
f 32/25/178 9/22/179 33/26/180
f 9/8/181 5/34/182 33/69/183
f 33/69/184 5/34/185 34/70/186
f 5/10/187 7/12/188 34/71/189
f 34/71/190 7/12/191 31/72/192
f 12/20/193 11/19/194 36/29/195
f 36/29/196 11/19/197 35/31/198
f 11/60/199 8/61/200 35/73/201
f 35/73/202 8/61/203 37/74/204
f 8/59/205 6/58/206 37/75/207
f 37/75/208 6/58/209 38/76/210
f 12/56/211 36/77/212 6/57/213
f 6/57/214 36/77/215 38/78/216
